{
  "asset": {
    "version": "2.0",
    "generator": "GeoHUB-Indoor-Model-Generator v1.0",
    "copyright": "Generated by QClaw Agent"
  },
  "scene": 0,
  "scenes": [
    {
      "nodes": [
        0
      ]
    }
  ],
  "nodes": [
    {
      "mesh": 0,
      "name": "B2层 - 停车场A区"
    }
  ],
  "meshes": [
    {
      "name": "B2层 - 停车场A区",
      "primitives": [
        {
          "attributes": {
            "POSITION": 0,
            "NORMAL": 1,
            "COLOR_0": 2
          },
          "indices": 3,
          "material": 0,
          "mode": 4
        }
      ]
    }
  ],
  "accessors": [
    {
      "bufferView": 0,
      "componentType": 5126,
      "count": 8,
      "type": "VEC3",
      "max": [
        120,
        27,
        90
      ],
      "min": [
        0,
        0,
        0
      ]
    },
    {
      "bufferView": 1,
      "componentType": 5126,
      "count": 8,
      "type": "VEC3"
    },
    {
      "bufferView": 2,
      "componentType": 5126,
      "count": 8,
      "type": "VEC4"
    },
    {
      "bufferView": 3,
      "componentType": 5125,
      "count": 36,
      "type": "SCALAR"
    }
  ],
  "bufferViews": [
    {
      "buffer": 0,
      "byteOffset": 0,
      "byteLength": 96,
      "target": 34962
    },
    {
      "buffer": 0,
      "byteOffset": 96,
      "byteLength": 96,
      "target": 34962
    },
    {
      "buffer": 0,
      "byteOffset": 192,
      "byteLength": 128,
      "target": 34962
    },
    {
      "buffer": 0,
      "byteOffset": 288,
      "byteLength": 144,
      "target": 34963
    }
  ],
  "buffers": [
    {
      "byteLength": 528,
      "uri": "data:model/gltf;base64,"
    }
  ],
  "materials": [
    {
      "name": "B2层 - 停车场A区_mat",
      "pbrMetallicRoughness": {
        "baseColorFactor": [
          0.8,
          0.8,
          0.85,
          0.9
        ],
        "metallicFactor": 0.1,
        "roughnessFactor": 0.7
      },
      "alphaMode": "BLEND",
      "doubleSided": true
    }
  ],
  "extras": {
    "geohub_metadata": {
      "floor_id": "B2",
      "floor_name": "B2层 - 停车场A区",
      "floor_type": "parking",
      "building_id": "B000A856LJ",
      "building_name": "北京国贸中心",
      "floor_y_meters": 0,
      "generated": "2026-07-29",
      "coordinate_system": "indoor_local",
      "origin_lnglat": [
        116.4603,
        39.9093
      ],
      "scale": {
        "x_meters_per_lng": 60000,
        "z_meters_per_lat": 90000
      }
    }
  }
}