{
  "asset": {
    "version": "2.0",
    "generator": "GeoHUB-Model-Gen-v1 (QClaw)"
  },
  "scene": 0,
  "scenes": [
    {
      "nodes": [
        0
      ]
    }
  ],
  "nodes": [
    {
      "mesh": 0,
      "name": "GuomaoIndoorAllFloors"
    }
  ],
  "meshes": [
    {
      "name": "GuomaoIndoorComplete",
      "primitives": [
        {
          "attributes": {
            "POSITION": 0,
            "NORMAL": 1,
            "COLOR_0": 2
          },
          "indices": 3,
          "material": 0,
          "mode": 4
        }
      ]
    }
  ],
  "accessors": [
    {
      "bufferView": 0,
      "componentType": 5126,
      "count": 160,
      "type": "VEC3",
      "max": [
        120,
        27,
        90
      ],
      "min": [
        0,
        0,
        0
      ]
    },
    {
      "bufferView": 1,
      "componentType": 5126,
      "count": 160,
      "type": "VEC3"
    },
    {
      "bufferView": 2,
      "componentType": 5126,
      "count": 160,
      "type": "VEC4"
    },
    {
      "bufferView": 3,
      "componentType": 5125,
      "count": 720,
      "type": "SCALAR"
    }
  ],
  "bufferViews": [
    {
      "buffer": 0,
      "byteOffset": 0,
      "byteLength": 1920,
      "target": 34962
    },
    {
      "buffer": 0,
      "byteOffset": 1920,
      "byteLength": 1920,
      "target": 34962
    },
    {
      "buffer": 0,
      "byteOffset": 3840,
      "byteLength": 2560,
      "target": 34962
    },
    {
      "buffer": 0,
      "byteOffset": 6400,
      "byteLength": 2880,
      "target": 34963
    }
  ],
  "buffers": [
    {
      "byteLength": 9280,
      "uri": "data:model/gltf;base64,"
    }
  ],
  "materials": [
    {
      "name": "indoor_mat",
      "pbrMetallicRoughness": {
        "baseColorFactor": [
          0.8,
          0.8,
          0.85,
          0.9
        ],
        "metallicFactor": 0.1,
        "roughnessFactor": 0.7
      },
      "alphaMode": "BLEND",
      "doubleSided": true
    }
  ],
  "extras": {
    "geohub_indoor": {
      "building_id": "B000A856LJ",
      "building_name": "Guomao Center Beijing",
      "floors": [
        {
          "id": "B2",
          "y_meters": 0,
          "type": "parking"
        },
        {
          "id": "B1",
          "y_meters": 4,
          "type": "shopping"
        },
        {
          "id": "L1",
          "y_meters": 8,
          "type": "shopping"
        },
        {
          "id": "L2",
          "y_meters": 12,
          "type": "shopping"
        },
        {
          "id": "L3",
          "y_meters": 16,
          "type": "shopping"
        },
        {
          "id": "L4",
          "y_meters": 20,
          "type": "dining"
        },
        {
          "id": "L5",
          "y_meters": 24,
          "type": "entertainment"
        }
      ],
      "coordinate_origin": {
        "lng": 116.4603,
        "lat": 39.9093
      },
      "scale": {
        "x_meters_per_lng": 60000,
        "z_meters_per_lat": 90000
      }
    }
  }
}